<svg xmlns="http://www.w3.org/2000/svg" viewBox="0 0 512 512" width="512" height="512" role="img" aria-label="MCPlexer"><rect width="512" height="512" rx="92.2" fill="#11141d"/><rect x="8" y="8" width="496" height="496" rx="86" fill="none" stroke="#3b82f6" stroke-opacity="0.35" stroke-width="4"/><g fill="#3b82f6"><circle cx="124.45" cy="166.00" r="10.20"/><circle cx="244.45" cy="166.00" r="10.20"/><circle cx="124.45" cy="196.00" r="10.20"/><circle cx="154.45" cy="196.00" r="10.20"/><circle cx="214.45" cy="196.00" r="10.20"/><circle cx="244.45" cy="196.00" r="10.20"/><circle cx="124.45" cy="226.00" r="10.20"/><circle cx="184.45" cy="226.00" r="10.20"/><circle cx="244.45" cy="226.00" r="10.20"/><circle cx="124.45" cy="256.00" r="10.20"/><circle cx="184.45" cy="256.00" r="10.20"/><circle cx="244.45" cy="256.00" r="10.20"/><circle cx="124.45" cy="286.00" r="10.20"/><circle cx="244.45" cy="286.00" r="10.20"/><circle cx="124.45" cy="316.00" r="10.20"/><circle cx="244.45" cy="316.00" r="10.20"/><circle cx="124.45" cy="346.00" r="10.20"/><circle cx="244.45" cy="346.00" r="10.20"/><circle cx="287.95" cy="166.00" r="10.20"/><circle cx="407.95" cy="166.00" r="10.20"/><circle cx="287.95" cy="196.00" r="10.20"/><circle cx="407.95" cy="196.00" r="10.20"/><circle cx="317.95" cy="226.00" r="10.20"/><circle cx="377.95" cy="226.00" r="10.20"/><circle cx="347.95" cy="256.00" r="10.20"/><circle cx="317.95" cy="286.00" r="10.20"/><circle cx="377.95" cy="286.00" r="10.20"/><circle cx="287.95" cy="316.00" r="10.20"/><circle cx="407.95" cy="316.00" r="10.20"/><circle cx="287.95" cy="346.00" r="10.20"/><circle cx="407.95" cy="346.00" r="10.20"/></g></svg>
